<svg width="128" height="128" version="1.1" viewBox="0 0 33.867 33.867" xmlns="http://www.w3.org/2000/svg">
  <circle cx="16.934" cy="16.934" r="16.934" style="fill:#670000" />
  <path
    d="m7.7769 23.302h-3.3241v-12.528h3.3241v0.94398h-2.2049v10.64h2.2049zm7.2078 0h-3.3241v-0.94398h2.1913v-10.64h-2.1913v-0.94398h3.3241zm7.4573 0.06743q-3.1083-2.8791-3.1083-6.3651 0-0.81586 0.16183-1.6249 0.16856-0.81586 0.53266-1.6317 0.37085-0.81586 0.97095-1.6317 0.60684-0.81586 1.4699-1.6183l0.681 0.69449q-2.6161 2.5824-2.6161 5.7245 0 1.5643 0.66078 3.0072 0.66078 1.4429 1.9553 2.724zm4.9221-12.871q3.1083 2.8791 3.1083 6.4055 0 0.7282-0.14834 1.5104-0.14834 0.78214-0.50569 1.6047-0.35736 0.81586-0.96419 1.6587-0.60009 0.84283-1.517 1.6924l-0.681-0.69449q1.3148-1.3013 1.9621-2.7173 0.6473-1.416 0.64729-2.9667 0-3.2095-2.6094-5.7717z"
    style="fill:none;stroke-linecap:square;stroke-width:2.3015;stroke:#fff" />
</svg>
